<?xml version="1.0" standalone="no"?>
<!DOCTYPE svg PUBLIC "-//W3C//DTD SVG 20010904//EN"
 "http://www.w3.org/TR/2001/REC-SVG-20010904/DTD/svg10.dtd">
<svg version="1.0" xmlns="http://www.w3.org/2000/svg"
 width="260.000000pt" height="260.000000pt" viewBox="0 0 260.000000 260.000000"
 preserveAspectRatio="xMidYMid meet">
<metadata>
Created by potrace 1.14, written by Peter Selinger 2001-2017
</metadata>
<g transform="translate(0.000000,260.000000) scale(0.100000,-0.100000)"
fill="#000000" stroke="none">
<path d="M1251 2543 c-11 -20 -20 -21 -32 -1 -7 10 -9 10 -9 0 0 -7 -4 -11 -8
-8 -13 8 -11 -28 2 -37 6 -4 -1 -5 -16 -3 -19 3 -32 -3 -50 -21 -12 -15 -17
-23 -10 -19 14 8 17 -10 3 -19 -6 -3 -14 3 -20 12 -13 23 -14 8 -1 -17 9 -16
7 -18 -11 -15 -16 3 -18 1 -10 -9 8 -10 6 -18 -9 -31 -24 -21 -27 -14 -4 9 8
9 11 16 5 16 -6 0 -14 0 -18 0 -6 1 -13 -20 -15 -47 -1 -9 -5 -10 -14 -2 -8 7
-14 6 -20 -2 -4 -8 -3 -9 4 -5 16 10 15 0 -4 -29 -10 -15 -22 -22 -36 -20 -16
4 -18 2 -8 -10 10 -12 8 -16 -11 -24 -13 -5 -28 -6 -33 -3 -5 3 -6 0 -2 -7 4
-6 12 -9 17 -6 5 4 9 4 9 1 0 -3 -10 -10 -21 -17 -13 -7 -19 -7 -15 -1 3 6 2
13 -3 16 -10 7 -9 -13 1 -30 5 -7 -1 -11 -15 -10 -12 1 -22 -3 -22 -9 0 -5 6
-9 13 -9 16 2 16 2 -10 -20 -18 -15 -20 -16 -15 -2 4 9 2 16 -3 16 -6 0 -10
-9 -10 -20 0 -10 -6 -23 -13 -27 -7 -4 -23 -21 -36 -38 -13 -16 -21 -22 -18
-12 4 9 2 17 -3 17 -6 0 -10 -9 -10 -20 0 -17 -13 -24 -40 -22 -3 0 -6 -8 -6
-18 0 -10 5 -16 10 -13 5 3 6 1 2 -5 -4 -7 -14 -12 -22 -12 -8 0 -13 4 -9 9 3
5 0 13 -6 17 -8 4 -9 3 -5 -5 4 -6 0 -14 -9 -17 -14 -6 -14 -8 2 -19 10 -8 15
-17 10 -21 -4 -4 -7 -2 -7 5 0 8 -5 7 -16 -3 -8 -9 -19 -14 -24 -11 -5 3 -12
0 -16 -6 -4 -8 -3 -9 4 -5 7 4 12 2 12 -5 0 -7 -8 -9 -21 -6 -12 3 -18 3 -15
0 3 -4 0 -13 -7 -22 -10 -14 -10 -14 4 -4 13 10 16 10 16 -1 0 -7 -10 -13 -21
-12 -13 0 -36 -15 -60 -41 -21 -24 -41 -41 -45 -38 -4 2 -8 -3 -8 -11 0 -10 7
-8 25 8 l25 23 -19 -28 c-13 -19 -26 -26 -42 -23 -22 3 -22 3 -5 -16 16 -18
16 -19 -2 -12 -13 5 -16 4 -11 -4 4 -7 3 -12 -3 -12 -5 0 -11 5 -13 10 -2 6
-9 1 -15 -10 -10 -15 -10 -19 0 -16 6 1 9 1 4 -1 -4 -3 -4 -9 -1 -15 4 -6 -2
-6 -14 1 -30 16 -39 13 -16 -5 16 -13 16 -15 2 -10 -21 6 -34 -9 -17 -20 8 -5
9 -3 4 6 -5 9 -4 11 4 6 18 -12 2 -27 -18 -17 -11 6 -22 6 -32 -1 -11 -8 -11
-9 3 -4 10 3 20 1 23 -4 4 -6 1 -10 -5 -10 -6 0 -8 -4 -5 -10 4 -6 -1 -7 -11
-3 -13 5 -16 3 -11 -10 7 -19 -17 -41 -38 -33 -8 3 -15 1 -15 -5 0 -6 -5 -7
-12 -3 -7 4 -8 3 -4 -4 4 -6 -5 -18 -21 -27 -15 -9 -20 -14 -11 -11 10 3 18 1
18 -4 0 -6 -7 -10 -16 -10 -8 0 -13 -4 -9 -9 3 -5 1 -12 -5 -16 -6 -4 -7 -11
-4 -17 4 -5 -4 -4 -17 3 -21 11 -22 10 -12 -3 13 -15 1 -38 -21 -38 -5 0 -2 6
8 13 17 13 18 14 2 20 -9 4 -14 3 -11 -2 3 -5 1 -12 -5 -16 -6 -4 -8 -11 -5
-16 6 -9 -9 -14 -30 -9 -5 1 -6 -2 -2 -7 5 -4 14 -8 19 -8 6 0 13 -6 16 -14 3
-8 0 -11 -6 -7 -5 3 -12 0 -15 -7 -3 -7 3 -13 13 -13 10 0 16 4 14 8 -3 4 2 8
11 8 12 0 15 -5 11 -17 -6 -16 -6 -16 12 0 20 18 47 23 37 7 -3 -5 -1 -10 4
-10 6 0 11 4 11 10 0 5 8 14 19 19 15 9 18 7 17 -7 0 -9 6 -17 14 -17 8 0 22
-5 30 -10 13 -8 13 -7 1 8 -7 9 -17 14 -22 11 -5 -3 -9 -1 -9 4 0 6 7 13 16
16 8 3 13 2 10 -2 -3 -4 5 -14 17 -22 19 -11 20 -11 10 1 -9 11 -8 19 4 34 15
20 15 20 9 -2 -4 -12 -3 -24 2 -27 5 -3 9 1 10 9 1 8 3 22 4 30 2 21 7 19 18
-7 8 -19 9 -16 5 15 -3 22 -1 37 6 37 5 0 7 -4 4 -10 -3 -5 -1 -10 5 -10 6 0
8 -5 4 -12 -4 -7 -3 -8 4 -4 6 4 9 13 6 20 -3 7 2 16 10 19 9 4 16 14 16 22 0
10 5 13 12 9 8 -5 9 -2 4 11 -6 16 -4 16 11 4 15 -12 16 -12 10 3 -7 20 8 34
17 16 4 -7 4 -3 2 9 -2 13 1 21 8 20 6 -1 10 3 9 9 -1 7 7 20 19 30 12 11 18
13 14 7 -4 -7 -2 -21 4 -30 8 -14 10 -14 9 -3 -3 27 1 41 9 36 4 -2 14 0 22 6
12 8 12 9 -2 4 -10 -3 -20 -1 -23 4 -3 5 6 12 20 16 14 3 25 10 25 16 0 5 -5
6 -12 2 -7 -4 -8 -3 -4 4 4 6 14 8 23 5 11 -4 14 -3 9 6 -9 14 22 53 35 45 5
-3 9 2 9 11 0 9 5 13 10 10 6 -4 8 -10 5 -15 -3 -5 -2 -11 3 -14 4 -2 8 6 8
20 0 13 -5 24 -10 25 -6 0 -1 4 12 10 13 5 21 13 17 18 -3 6 4 8 15 6 11 -2
18 0 15 6 -6 8 9 13 29 10 5 -1 3 5 -4 14 -7 8 -9 19 -5 23 4 4 10 1 12 -5 9
-25 20 -12 17 20 -1 17 0 26 3 20 7 -18 28 -16 44 4 13 15 12 15 -11 3 -22
-12 -24 -11 -13 2 7 8 10 17 8 20 -3 3 6 3 20 1 15 -3 25 -1 25 6 0 7 5 9 12
5 7 -5 8 -3 3 5 -5 9 -10 10 -18 2 -6 -6 -16 -11 -21 -11 -6 0 0 7 12 16 12 8
27 12 34 8 7 -4 8 -3 4 4 -6 11 6 17 27 13 4 -1 3 7 -2 18 -8 14 -7 22 6 32
12 10 15 10 9 2 -4 -8 -2 -13 4 -13 6 0 8 -6 4 -12 -4 -7 -3 -9 2 -5 4 4 9 20
9 35 0 16 6 26 13 24 7 -1 12 6 13 15 0 11 3 13 6 5 2 -6 9 -9 14 -6 6 3 5 11
-2 20 -10 12 -9 13 6 8 13 -5 16 -4 10 5 -6 11 -3 11 16 1 l24 -13 -20 24 -20
23 26 -16 c25 -16 27 -16 25 0 -1 12 5 16 19 14 15 -2 17 -1 6 6 -11 8 -10 12
5 20 12 7 15 14 9 19 -5 5 -9 6 -7 4 4 -7 -40 -51 -51 -51 -6 0 1 9 14 21 13
11 24 26 24 32 0 7 5 12 11 12 17 0 41 29 37 45 -4 13 -3 13 6 0 7 -10 6 -19
-6 -32 -8 -9 -13 -23 -10 -30 4 -9 6 -8 6 3 1 9 10 24 21 34 21 19 28 41 8 29
-7 -4 -8 -3 -4 4 4 7 17 12 29 12 21 1 21 1 4 14 -16 12 -16 14 -2 20 9 3 14
2 11 -3 -3 -5 0 -11 7 -14 9 -3 12 5 12 29 -1 29 1 32 13 21 13 -10 14 -9 4
10 -16 28 -15 31 6 36 15 4 15 5 0 6 -10 1 -16 9 -15 21 1 14 6 19 17 15 11
-5 12 -3 3 6 -6 6 -9 19 -5 28 5 14 4 14 -11 2 -10 -8 -20 -11 -24 -7 -3 3 -1
6 5 6 7 0 12 7 12 16 0 8 4 13 8 10 4 -2 8 4 8 14 0 15 -3 17 -15 7 -11 -9
-10 -4 3 21 17 33 15 46 -3 15z m-17 -25 c-3 -4 -9 -8 -15 -8 -5 0 -9 4 -9 8
0 5 7 9 15 9 8 0 12 -4 9 -9z m-65 -54 c-6 -7 -15 -11 -21 -8 -5 3 -4 12 3 20
6 7 15 11 21 8 5 -3 4 -12 -3 -20z m-577 -582 c-7 -2 -9 -9 -5 -15 3 -7 3 -9
-1 -5 -12 10 -34 -15 -29 -32 4 -13 3 -13 -5 -1 -8 11 -5 22 11 42 12 14 26
24 32 21 5 -3 4 -7 -3 -10z m-298 -311 c-10 -10 -21 -17 -23 -15 -6 6 20 34
32 34 6 0 2 -8 -9 -19z m-109 -131 c-6 -10 6 -14 35 -11 13 2 13 0 1 -8 -10
-6 -21 -6 -33 0 -20 11 -24 29 -7 29 5 0 7 -4 4 -10z"/>
<path d="M1383 2542 c-8 -5 -11 -21 -8 -41 2 -18 1 -30 -3 -26 -4 3 -7 14 -7
22 0 9 -7 18 -15 20 -13 4 -13 3 0 -7 12 -9 12 -13 2 -17 -9 -3 -7 -10 9 -24
18 -15 19 -19 6 -19 -10 0 -17 5 -17 12 0 6 -3 8 -7 4 -5 -4 1 -14 11 -22 17
-12 18 -14 3 -14 -9 0 -17 -4 -17 -10 0 -5 7 -7 15 -4 8 4 15 1 15 -5 0 -6 -8
-11 -17 -11 -12 0 -14 -3 -7 -8 7 -4 10 -19 9 -34 -2 -17 2 -28 9 -28 7 0 18
-12 24 -26 10 -20 10 -24 0 -18 -9 5 -10 4 -3 -4 6 -7 23 -13 37 -14 21 -2 24
-5 16 -15 -6 -8 -8 -17 -4 -20 4 -4 11 -1 16 7 6 9 10 10 10 3 0 -7 -8 -17
-17 -22 -14 -8 -11 -9 15 -6 l33 4 -16 -25 c-16 -25 -16 -25 4 -15 27 15 36
14 21 -4 -10 -12 -8 -14 9 -10 11 2 20 1 20 -3 -4 -27 1 -34 16 -22 13 11 14
10 9 -5 -6 -14 -4 -16 7 -10 11 6 12 5 2 -6 -17 -17 -17 -37 -1 -21 7 7 17 12
22 12 6 0 5 -5 -2 -12 -7 -7 -12 -17 -12 -22 0 -6 5 -4 10 4 7 11 10 11 10 2
0 -7 5 -10 11 -7 6 4 10 1 8 -6 -3 -30 2 -37 25 -35 19 3 22 -1 18 -18 -5 -19
-4 -19 12 -7 9 8 19 11 23 7 3 -3 1 -6 -5 -6 -7 0 -12 -8 -12 -17 0 -15 2 -16
10 -3 8 13 10 12 10 -2 0 -10 -6 -18 -12 -18 -10 0 -9 -3 1 -9 7 -5 26 -8 41
-7 27 2 33 -14 16 -43 -7 -10 -4 -11 12 -2 29 15 51 -12 33 -41 -7 -11 -8 -17
-3 -14 6 3 18 -2 28 -11 17 -17 18 -17 11 0 -3 9 -2 17 3 17 6 0 10 -7 10 -15
0 -8 5 -15 10 -15 6 0 10 -6 10 -14 0 -7 8 -20 18 -27 15 -13 16 -12 4 3 -9
11 -10 18 -2 23 6 4 10 3 9 -2 -5 -22 22 -63 41 -63 12 0 18 -5 15 -10 -4 -6
-12 -7 -18 -3 -7 3 -3 -3 7 -15 15 -17 22 -19 33 -11 11 9 12 8 7 -5 -4 -9 -3
-16 2 -15 5 1 16 1 24 0 12 -1 11 -4 -3 -12 -26 -15 -11 -32 16 -17 20 10 21
10 8 -6 -12 -14 -12 -16 3 -10 11 4 16 1 16 -11 0 -9 9 -19 20 -22 11 -3 17
-9 14 -14 -5 -9 9 -13 31 -10 6 1 1 -6 -10 -15 -18 -15 -18 -16 -1 -10 14 5
17 2 12 -9 -3 -9 1 -18 9 -21 8 -4 13 -10 10 -14 -3 -5 6 -7 19 -6 17 2 23 -1
19 -10 -6 -17 9 -18 25 -2 8 8 10 5 6 -15 -3 -22 -1 -25 13 -21 13 4 12 0 -6
-15 -13 -12 -18 -21 -13 -21 6 0 14 5 17 10 3 6 11 10 16 10 6 0 7 -4 4 -10
-6 -9 8 -14 28 -11 5 1 7 -4 4 -11 -2 -7 -10 -12 -16 -10 -7 1 -10 -2 -6 -8 3
-6 12 -7 18 -3 19 12 49 14 42 3 -3 -5 -1 -10 4 -10 6 0 11 5 11 10 0 6 9 10
20 10 11 0 20 -4 20 -10 0 -5 5 -10 11 -10 5 0 7 5 4 10 -3 6 -1 10 4 10 11 0
15 -15 12 -34 -1 -5 5 -4 13 4 18 14 22 25 6 15 -5 -3 -10 -2 -10 3 0 6 7 12
15 16 9 3 15 0 15 -9 0 -8 4 -15 9 -15 6 0 9 9 8 20 -1 11 -5 20 -9 20 -4 0
-8 5 -8 11 0 8 5 8 15 -1 8 -7 12 -17 8 -24 -4 -7 -1 -6 9 1 8 7 18 9 23 5 4
-4 0 7 -8 24 -9 17 -13 35 -9 39 4 5 1 5 -6 1 -8 -5 -9 -13 -2 -26 5 -10 10
-22 10 -27 -1 -4 -7 3 -14 16 -8 14 -12 30 -9 37 3 8 -4 11 -20 10 -22 -3 -25
0 -21 26 3 27 2 29 -14 17 -9 -7 -14 -9 -10 -5 4 5 0 15 -10 23 -9 8 -11 12
-5 8 9 -4 11 -1 7 10 -5 13 -9 13 -22 3 -12 -10 -14 -10 -8 0 4 6 2 12 -3 12
-6 0 -11 5 -11 11 0 5 4 7 10 4 6 -3 7 1 3 10 -4 13 -8 14 -14 4 -6 -10 -11
-10 -22 -1 -7 7 -16 10 -18 7 -3 -2 -5 5 -6 16 -2 19 -1 19 15 1 9 -10 13 -12
8 -5 -5 7 -5 13 0 13 5 0 2 5 -6 10 -11 7 -18 5 -27 -6 -7 -10 -13 -11 -18 -5
-3 6 -1 11 4 11 6 0 11 7 11 16 0 14 -2 15 -17 3 -15 -12 -16 -12 -10 4 6 15
3 17 -16 12 -17 -5 -19 -4 -7 4 10 7 11 11 3 11 -7 0 -13 8 -13 18 0 15 2 15
11 2 9 -13 10 -13 6 0 -2 8 -10 15 -18 15 -8 1 -13 6 -12 11 1 6 -5 11 -13 11
-18 0 -18 -13 1 -21 8 -3 15 -10 15 -17 0 -14 -65 53 -74 77 -4 13 1 10 16 -8
18 -22 26 -26 38 -17 13 9 12 10 -2 5 -17 -5 -43 25 -32 37 9 8 -19 3 -36 -7
-8 -5 -12 -6 -8 -1 4 4 0 14 -10 22 -9 8 -12 12 -5 9 6 -4 15 -1 19 5 4 7 3 9
-3 6 -6 -4 -18 0 -29 7 -10 8 -25 12 -34 9 -13 -4 -13 -3 -1 5 10 7 22 7 35 1
19 -9 20 -9 4 4 -10 8 -16 16 -13 19 3 2 -2 5 -10 5 -8 0 -12 -4 -9 -9 3 -4 0
-8 -7 -8 -7 0 -9 8 -6 21 5 17 3 18 -11 7 -9 -7 -13 -8 -9 -2 4 7 -3 14 -19
18 -25 7 -26 8 -8 21 11 7 16 17 11 21 -4 4 -7 2 -7 -5 0 -7 -5 -9 -10 -6 -6
4 -8 10 -5 15 3 5 -3 7 -14 5 -23 -4 -58 29 -42 40 6 3 11 12 11 18 0 8 -3 8
-9 -2 -7 -11 -13 -10 -34 4 -15 10 -24 22 -20 31 6 17 -13 19 -21 2 -3 -7 -4
-4 -1 7 2 11 0 27 -6 35 -9 12 -10 11 -5 -5 5 -19 5 -19 -7 -1 -36 56 -44 61
-63 46 -16 -12 -17 -12 -6 0 6 8 12 23 11 35 0 20 0 20 -9 0 -6 -13 -9 -15 -9
-5 -1 13 -2 13 -11 0 -6 -9 -10 -10 -10 -3 0 6 5 15 11 19 8 5 6 10 -5 16 -9
5 -20 7 -25 3 -5 -3 -12 -1 -15 4 -4 5 -1 13 5 17 8 5 9 3 4 -6 -5 -9 -4 -11
4 -6 6 4 9 12 5 17 -3 5 -9 7 -14 4 -5 -3 -12 0 -16 6 -4 8 -9 7 -16 -2 -5 -9
-6 -4 -2 15 5 21 4 27 -5 22 -6 -4 -11 -2 -11 3 0 6 5 11 12 11 6 0 8 3 5 6
-4 4 -14 1 -24 -7 -15 -12 -16 -12 -10 4 4 11 2 17 -8 17 -8 0 -15 5 -15 11 0
5 5 7 12 3 6 -4 8 -3 5 4 -4 5 -17 8 -30 5 -18 -4 -19 -3 -7 6 11 8 12 11 2
11 -8 0 -10 5 -6 13 6 10 4 10 -7 0 -14 -14 -30 -17 -28 -5 4 22 -3 31 -18 26
-17 -5 -17 -5 -1 6 10 6 15 17 11 26 -5 12 -7 12 -20 -3 -14 -17 -14 -17 -9 1
5 14 2 17 -10 12 -15 -6 -15 -4 -3 10 12 15 11 16 -9 10 -12 -4 -22 -4 -21 1
3 20 -2 34 -11 28 -5 -3 -10 -2 -10 4 0 5 3 11 8 14 4 2 2 2 -5 1 -6 -2 -14 0
-16 4 -2 4 -2 1 -1 -6 3 -9 -1 -10 -16 -2 -11 6 -20 13 -20 16 0 3 5 2 12 -2
6 -4 8 -3 4 4 -3 5 0 13 6 15 7 3 9 6 3 6 -5 0 -16 -3 -22 -7z m-7 -176 c0
-14 -5 -21 -9 -17 -4 4 -5 15 -1 24 9 24 12 21 10 -7z m257 -310 c4 -10 1 -13
-8 -9 -8 3 -12 9 -9 14 7 12 11 11 17 -5z m92 -85 c-9 -8 -36 -10 -30 -2 2 4
11 8 20 8 8 0 13 -3 10 -6z m95 -95 c0 -2 -7 -7 -16 -10 -8 -3 -12 -2 -9 4 6
10 25 14 25 6z m130 -156 c0 -5 -2 -10 -4 -10 -3 0 -8 5 -11 10 -3 6 -1 10 4
10 6 0 11 -4 11 -10z m180 -181 c0 -5 5 -7 12 -3 7 4 8 3 4 -5 -6 -9 -12 -9
-24 1 -10 7 -19 14 -21 15 -2 2 3 3 12 3 10 0 17 -5 17 -11z m160 -113 c0 -2
-7 -7 -16 -10 -8 -3 -12 -2 -9 4 6 10 25 14 25 6z"/>
<path d="M993 2319 c-2 -23 3 -25 10 -4 4 8 3 16 -1 19 -4 3 -9 -4 -9 -15z"/>
<path d="M930 2280 c0 -5 5 -10 10 -10 6 0 10 5 10 10 0 6 -4 10 -10 10 -5 0
-10 -4 -10 -10z"/>
<path d="M1660 2280 c0 -5 5 -10 11 -10 5 0 7 5 4 10 -3 6 -8 10 -11 10 -2 0
-4 -4 -4 -10z"/>
<path d="M826 2157 c3 -10 9 -15 12 -12 3 3 0 11 -7 18 -10 9 -11 8 -5 -6z"/>
<path d="M805 2129 c-6 -17 -9 -19 -16 -8 -6 9 -9 10 -9 2 0 -22 19 -24 30 -2
7 11 9 23 7 26 -3 2 -8 -5 -12 -18z"/>
<path d="M1500 2139 c0 -5 5 -7 10 -4 6 3 10 8 10 11 0 2 -4 4 -10 4 -5 0 -10
-5 -10 -11z"/>
<path d="M1866 2056 c10 -8 21 -12 24 -10 5 6 -21 24 -34 24 -6 0 -1 -6 10
-14z"/>
<path d="M993 2045 c0 -8 4 -15 9 -15 4 0 8 4 8 9 0 6 -4 12 -8 15 -5 3 -9 -1
-9 -9z"/>
<path d="M1900 2015 c0 -2 7 -8 15 -15 12 -10 15 -10 15 2 0 8 -7 15 -15 15
-8 0 -15 -1 -15 -2z"/>
<path d="M1715 1930 c3 -5 8 -10 11 -10 2 0 4 5 4 10 0 6 -5 10 -11 10 -5 0
-7 -4 -4 -10z"/>
<path d="M1756 1902 c-3 -5 1 -9 9 -9 8 0 12 4 9 9 -3 4 -7 8 -9 8 -2 0 -6 -4
-9 -8z"/>
<path d="M745 1789 c-11 -16 -1 -19 13 -3 7 8 8 14 3 14 -5 0 -13 -5 -16 -11z"/>
<path d="M1373 1739 c-6 -6 -9 -19 -6 -28 4 -9 3 -13 -2 -9 -4 4 -13 3 -20 -2
-8 -7 -12 -5 -12 5 0 8 4 12 9 9 4 -3 8 0 8 6 0 7 -6 10 -14 7 -7 -3 -19 0
-26 6 -10 10 -10 8 -1 -10 9 -18 8 -21 -7 -18 -9 1 -23 -3 -31 -9 -11 -8 -13
-8 -8 0 4 7 0 17 -8 24 -8 7 -15 9 -15 4 0 -5 -5 -2 -10 6 -6 9 -10 10 -10 3
0 -6 -9 -10 -19 -8 -15 3 -18 -1 -14 -12 5 -13 3 -14 -17 -3 -14 8 -20 8 -16
1 5 -7 1 -9 -8 -5 -9 3 -13 11 -9 18 4 6 0 5 -9 -2 -9 -8 -14 -21 -12 -30 4
-13 2 -13 -12 3 l-17 20 8 -20 c12 -32 14 -66 4 -59 -5 3 -7 10 -4 15 4 5 4 9
1 9 -3 0 -10 -10 -17 -21 -6 -12 -7 -19 -2 -16 11 7 23 -1 43 -28 15 -20 14
-20 -8 -1 -12 11 -25 16 -29 13 -3 -4 -1 -7 6 -7 7 0 9 -5 6 -10 -4 -6 -3 -10
2 -9 4 1 10 0 13 -1 3 -1 15 -3 27 -4 18 -2 20 0 11 11 -6 7 -8 16 -4 20 3 3
6 1 6 -6 0 -9 11 -12 34 -9 28 3 33 1 31 -14 -4 -21 11 -33 21 -17 5 8 3 9 -6
4 -9 -5 -11 -4 -6 4 9 14 29 4 23 -12 -2 -7 0 -22 4 -34 6 -17 5 -21 -6 -17
-7 3 -11 12 -8 20 3 8 3 14 0 14 -16 0 -13 -33 5 -49 l20 -20 -23 6 c-24 5
-24 5 -4 -10 18 -15 18 -16 3 -17 -22 0 -24 -18 -3 -26 11 -5 12 -10 4 -26 -8
-16 -8 -23 2 -29 10 -6 11 -9 2 -9 -7 0 -13 -5 -13 -11 0 -5 6 -7 13 -3 7 5 6
0 -3 -11 -8 -10 -10 -16 -3 -12 6 4 15 3 18 -3 4 -6 3 -10 -2 -9 -18 3 -33 -2
-33 -11 0 -5 6 -7 13 -4 8 3 13 -3 13 -15 0 -13 -4 -17 -11 -11 -12 10 -12
-40 0 -59 3 -6 2 -11 -4 -11 -6 0 -8 -7 -5 -15 4 -8 9 -13 13 -10 11 6 7 -36
-5 -60 -6 -11 -9 -33 -8 -50 2 -16 -2 -33 -9 -38 -7 -5 -3 -6 11 -2 13 4 22 2
22 -4 0 -6 -5 -11 -12 -11 -6 0 -3 -6 8 -14 13 -10 23 -11 31 -4 13 11 17 1
14 -32 -2 -13 0 -13 8 -1 5 8 7 20 4 27 -2 6 1 15 8 20 7 4 10 3 6 -2 -3 -6
-2 -16 4 -24 7 -13 9 -12 9 2 0 9 5 20 12 24 6 4 8 3 5 -3 -4 -6 4 -10 18 -10
16 -1 22 4 18 11 -15 23 -10 33 14 30 19 -2 22 0 13 11 -6 8 -17 12 -24 9 -7
-3 -13 2 -13 10 0 8 6 12 14 9 9 -4 11 0 7 11 -3 9 -11 13 -18 9 -6 -3 -8 -3
-4 2 4 4 2 17 -4 29 l-11 21 24 -20 c16 -14 20 -15 10 -3 -7 9 -10 22 -6 28 3
5 1 10 -5 10 -6 0 -8 5 -5 10 4 6 1 18 -7 27 -8 10 -8 14 -1 10 6 -4 14 -3 18
3 3 5 0 10 -7 10 -8 1 -5 7 7 17 16 13 17 15 3 10 -21 -7 -21 -7 -8 28 8 22 8
26 -3 22 -15 -6 -17 27 -2 40 4 5 5 1 0 -7 -5 -8 -5 -12 0 -8 14 13 13 109 -2
104 -13 -6 -7 19 11 43 8 11 8 13 0 8 -7 -4 -14 3 -17 18 -2 14 0 28 6 32 5 3
7 2 4 -3 -3 -6 -1 -16 4 -24 7 -11 8 -8 5 10 -3 14 -5 25 -6 25 -1 0 -3 10 -4
22 -1 12 2 19 7 16 5 -3 6 4 2 18 -5 19 -4 21 4 9 6 -8 11 -12 11 -8 0 4 11 3
25 -2 22 -9 37 2 18 13 -5 2 -3 2 4 1 7 -2 15 1 18 6 4 6 11 10 16 10 6 0 3
-7 -5 -16 -19 -19 -21 -31 -3 -15 8 6 17 8 20 4 4 -3 7 -1 7 5 0 7 9 12 19 12
11 0 23 5 27 12 4 6 3 8 -3 5 -6 -4 -10 4 -10 18 0 14 3 23 7 20 3 -2 7 2 7
10 0 8 -5 11 -10 8 -6 -4 -8 1 -4 11 5 12 3 16 -5 13 -7 -2 -18 8 -24 22 -9
22 -11 23 -17 8 -5 -13 -3 -16 6 -11 9 6 9 5 0 -8 -7 -8 -9 -19 -5 -23 4 -5 1
-5 -6 -1 -7 4 -10 12 -7 17 4 5 2 9 -4 9 -5 0 -12 -6 -14 -12 -4 -10 -6 -10
-6 0 -1 7 -6 10 -13 6 -6 -4 -8 -3 -5 3 8 12 -24 13 -40 1 -9 -7 -11 -4 -8 11
4 24 3 25 -12 10z m-123 -31 c0 -4 -9 -7 -20 -5 -29 5 -33 13 -5 13 14 0 25
-4 25 -8z m130 -302 c0 -3 -4 -8 -10 -11 -5 -3 -10 -1 -10 4 0 6 5 11 10 11 6
0 10 -2 10 -4z m-133 -171 c0 -8 -4 -12 -9 -9 -5 3 -6 10 -3 15 9 13 12 11 12
-6z m20 -224 c0 -11 -5 -18 -9 -15 -4 3 -5 11 -1 19 7 21 12 19 10 -4z"/>
<path d="M1460 1740 c-8 -5 -12 -12 -9 -15 4 -3 12 1 19 10 14 17 11 19 -10 5z"/>
<path d="M671 1726 c-9 -10 -9 -16 -1 -21 6 -4 10 -3 9 2 -3 20 2 27 11 13 6
-9 10 -10 10 -3 0 19 -17 24 -29 9z"/>
<path d="M1276 1722 c-3 -5 1 -9 9 -9 8 0 12 4 9 9 -3 4 -7 8 -9 8 -2 0 -6 -4
-9 -8z"/>
<path d="M316 1634 c-8 -20 0 -32 14 -18 5 5 5 15 1 22 -6 11 -10 10 -15 -4z"/>
<path d="M210 1519 c0 -5 5 -7 10 -4 6 3 10 8 10 11 0 2 -4 4 -10 4 -5 0 -10
-5 -10 -11z"/>
<path d="M2400 1520 c-13 -8 -12 -10 3 -10 9 0 17 5 17 10 0 12 -1 12 -20 0z"/>
<path d="M2446 1402 c-3 -5 1 -9 9 -9 8 0 15 4 15 9 0 4 -4 8 -9 8 -6 0 -12
-4 -15 -8z"/>
<path d="M2316 1387 c3 -10 9 -15 12 -12 3 3 0 11 -7 18 -10 9 -11 8 -5 -6z"/>
<path d="M216 1382 c-3 -5 1 -9 9 -9 8 0 12 4 9 9 -3 4 -7 8 -9 8 -2 0 -6 -4
-9 -8z"/>
<path d="M233 1315 c-16 -17 -17 -29 -2 -19 8 4 8 0 0 -15 -7 -11 -14 -21 -17
-21 -3 0 -3 4 0 9 8 13 -4 42 -15 36 -4 -3 -5 -13 -2 -23 4 -13 2 -13 -10 3
-15 18 -16 18 -17 3 0 -10 0 -21 1 -24 0 -4 -5 -11 -13 -16 -10 -8 -10 -9 2
-5 8 2 14 10 12 16 -1 7 2 9 9 6 6 -4 8 -17 5 -30 -7 -26 15 -40 34 -22 10 10
10 8 1 -9 -8 -17 -7 -25 4 -34 8 -7 12 -16 9 -21 -3 -5 7 -4 21 1 14 5 24 6
21 1 -3 -5 1 -11 8 -14 8 -3 17 -2 20 4 2 5 3 4 2 -3 -2 -7 -8 -12 -13 -11 -5
1 -10 -4 -10 -12 0 -7 6 -11 12 -8 7 2 19 -3 28 -11 8 -8 17 -13 19 -10 3 2
11 -3 19 -13 9 -11 10 -14 2 -9 -15 9 -17 -3 -3 -24 6 -10 10 -11 10 -2 0 6 4
12 8 12 5 0 9 -7 9 -15 0 -8 -5 -15 -10 -15 -6 0 -7 -3 -4 -6 4 -4 14 -1 22 6
14 11 14 10 5 -14 -6 -18 -6 -25 0 -21 6 3 10 1 10 -6 0 -8 3 -9 14 0 10 8 16
8 25 -2 6 -8 8 -17 4 -20 -3 -4 -1 -7 7 -7 10 0 10 -3 0 -15 -11 -14 -10 -14
16 -5 27 9 28 9 10 -5 -18 -14 -18 -15 -2 -15 11 0 15 -4 10 -12 -6 -10 -4
-10 8 0 14 11 16 10 13 -5 -3 -21 13 -45 26 -37 5 3 22 -5 37 -17 15 -12 19
-19 10 -16 -10 4 -18 2 -18 -3 0 -6 7 -10 15 -10 8 0 15 -4 15 -10 0 -5 7 -10
15 -10 8 0 15 -5 15 -11 0 -5 -6 -7 -12 -3 -9 5 -9 3 1 -9 7 -9 17 -15 21 -12
5 3 11 1 14 -4 4 -5 -2 -12 -11 -14 -16 -4 -16 -5 -1 -6 9 0 20 4 23 9 8 13
25 13 25 -1 0 -5 -4 -7 -10 -4 -5 3 -10 1 -10 -4 0 -6 5 -11 10 -11 6 0 10 -6
10 -14 0 -9 7 -13 19 -11 15 3 18 -1 14 -12 -4 -10 -2 -14 5 -9 6 3 13 2 17
-4 4 -6 11 -8 16 -4 6 3 5 -3 -3 -15 -11 -18 -10 -22 7 -35 11 -8 27 -12 37
-11 10 2 21 -1 24 -7 4 -7 2 -8 -4 -4 -7 4 -12 3 -12 -3 0 -5 9 -13 20 -16 18
-6 25 -24 21 -49 -1 -5 4 -4 12 2 12 10 14 8 12 -13 -2 -14 1 -23 6 -19 5 3 6
10 3 16 -4 7 -2 8 5 4 7 -4 9 -17 6 -29 -4 -13 -3 -17 2 -11 6 9 11 8 21 -2
10 -10 10 -14 1 -14 -7 0 -9 -3 -6 -6 4 -4 12 -2 19 4 9 7 17 6 27 -5 11 -12
11 -14 -1 -11 -7 2 -14 -1 -14 -7 0 -5 6 -9 13 -7 12 3 18 -10 14 -31 -1 -5 3
-6 9 -2 5 3 10 1 10 -6 0 -7 3 -9 6 -6 4 4 2 13 -4 20 -9 10 -8 14 2 14 9 0
13 -10 12 -27 -1 -16 3 -27 11 -27 6 0 10 5 7 11 -3 6 1 3 10 -8 9 -11 20 -15
28 -10 7 4 4 -3 -6 -15 -19 -21 -19 -21 -1 -15 12 5 16 4 11 -4 -3 -6 -2 -13
3 -16 5 -4 13 -1 17 5 5 8 3 9 -6 4 -9 -5 -11 -4 -6 4 12 19 24 3 19 -26 -3
-20 -2 -24 5 -14 5 7 15 10 21 7 15 -9 14 -36 -1 -36 -6 0 -8 -3 -5 -6 4 -4
13 -1 22 6 9 7 19 10 23 6 7 -7 8 -11 11 -37 1 -8 5 -8 15 0 12 10 13 8 9 -8
-3 -12 -10 -18 -17 -14 -6 3 -7 2 -3 -2 15 -17 36 -14 30 3 -4 10 3 6 14 -8
15 -18 19 -30 12 -42 -7 -14 -6 -16 6 -12 8 3 12 10 9 15 -3 5 2 12 11 15 13
5 14 9 4 15 -9 5 -10 12 -3 21 14 19 11 44 -6 40 -10 -2 -11 0 -3 10 6 7 12
16 12 21 1 4 1 8 2 10 6 19 3 80 -4 84 -6 4 -7 1 -2 -7 5 -8 4 -11 -3 -7 -5 4
-8 15 -5 25 2 10 -3 31 -11 47 -10 19 -16 24 -16 13 0 -9 5 -20 10 -23 6 -3
10 -14 9 -23 0 -12 -3 -10 -10 6 -5 13 -12 21 -17 18 -4 -2 -7 11 -7 30 2 33
1 34 -18 17 -11 -10 -17 -12 -13 -5 4 7 1 12 -9 12 -9 0 -16 7 -14 17 3 33 -1
44 -12 37 -8 -5 -8 -9 1 -14 9 -5 9 -9 1 -14 -6 -4 -12 -2 -12 3 -3 26 -4 30
-12 37 -4 4 -7 1 -7 -6 0 -7 -3 -11 -6 -8 -3 4 0 17 7 30 12 22 11 23 -8 5
-24 -21 -40 -23 -19 -1 9 8 16 20 16 25 0 6 -7 3 -16 -5 -16 -16 -39 -13 -29
4 3 5 -4 15 -15 23 -11 7 -17 17 -13 20 3 4 1 7 -6 7 -7 0 -9 4 -6 10 3 6 1
10 -4 10 -6 0 -10 6 -8 13 1 7 -7 11 -20 9 -12 -2 -25 3 -29 9 -5 9 -2 10 9 6
9 -3 19 -1 23 5 4 6 3 8 -4 4 -6 -3 -13 -2 -17 3 -3 6 -12 8 -19 5 -9 -4 -13
2 -11 20 2 15 -1 24 -6 20 -5 -3 -12 2 -15 10 -9 22 -35 21 -28 -1 5 -15 4
-16 -5 -3 -8 11 -6 18 7 29 16 13 16 13 0 8 -10 -3 -27 2 -40 13 -20 17 -21
21 -8 31 13 9 12 10 -3 5 -10 -3 -26 0 -37 6 -18 12 -18 13 -2 32 9 11 12 16
5 13 -6 -4 -14 -3 -18 2 -3 6 -13 7 -23 4 -15 -5 -14 -3 3 18 l20 24 -20 -15
c-11 -8 -24 -19 -28 -25 -6 -6 -7 -4 -4 5 10 28 14 45 10 38 -3 -5 -9 -8 -14
-8 -6 0 -7 5 -3 12 5 8 2 9 -9 5 -10 -3 -17 -2 -17 4 0 6 -4 7 -10 4 -6 -3 -7
1 -3 10 5 14 8 14 15 3 8 -10 9 -10 5 2 -2 8 -9 15 -16 15 -13 0 -32 25 -26
35 2 3 -5 6 -15 7 -15 1 -15 -2 6 -24 13 -14 21 -29 18 -32 -4 -3 -9 0 -11 7
-3 7 -17 25 -32 39 -14 14 -20 22 -13 19 6 -4 12 -2 12 3 0 10 -20 15 -41 13
-4 -1 -5 8 -2 18 3 12 0 20 -6 20 -7 0 -9 -5 -5 -12 4 -7 -2 -5 -13 5 -11 9
-24 14 -28 10 -5 -5 -3 0 4 10 9 11 10 17 2 17 -6 0 -11 4 -11 10 0 5 8 7 18
4 13 -5 14 -4 3 4 -8 6 -22 9 -32 7 -12 -2 -16 1 -13 10 3 7 0 16 -7 21 -7 4
-10 3 -5 -4 3 -6 2 -13 -3 -16 -15 -10 -6 25 10 35 10 8 7 8 -10 4 -14 -5 -21
-3 -17 3 8 14 -15 28 -41 26 -12 0 -20 3 -17 7 3 5 0 9 -7 9 -7 0 -9 3 -6 6 4
4 14 1 24 -7 14 -11 15 -11 9 0 -5 8 -4 16 3 20 7 5 -2 8 -19 9 -52 3 -59 5
-54 14 3 5 9 6 13 4 4 -3 8 1 8 9 0 8 -3 13 -5 10 -3 -3 -15 3 -26 12 -21 18
-21 18 -3 -3 16 -19 16 -22 3 -27 -9 -4 -15 -1 -13 6 1 6 -8 13 -20 15 -13 2
-23 -1 -23 -7 0 -6 8 -8 18 -5 14 5 15 4 2 -5 -11 -8 -18 -7 -25 3 -6 7 -20
11 -32 10 -16 -3 -21 0 -17 11 8 19 3 19 -13 0z m-23 -95 c0 -5 -2 -10 -4 -10
-3 0 -8 5 -11 10 -3 6 -1 10 4 10 6 0 11 -4 11 -10z m255 -10 c3 -5 1 -10 -4
-10 -6 0 -11 5 -11 10 0 6 2 10 4 10 3 0 8 -4 11 -10z m-219 -29 c-4 -5 0 -12
6 -14 8 -4 9 -6 2 -6 -6 -1 -17 6 -24 14 -10 12 -9 15 4 15 10 0 15 -4 12 -9z
m224 -1 c0 -5 -5 -10 -11 -10 -5 0 -7 5 -4 10 3 6 8 10 11 10 2 0 4 -4 4 -10z
m74 -312 c-9 -14 -23 2 -17 18 4 12 8 13 14 3 4 -7 5 -17 3 -21z m241 12 c3
-5 1 -10 -4 -10 -6 0 -11 5 -11 10 0 6 2 10 4 10 3 0 8 -4 11 -10z m134 -144
c9 -11 9 -16 0 -22 -8 -4 -9 -3 -5 4 4 7 2 12 -3 12 -6 0 -11 5 -11 10 0 14 5
13 19 -4z m74 -86 c-3 -12 -8 -19 -11 -16 -5 6 5 36 12 36 2 0 2 -9 -1 -20z
m-218 -10 c-3 -5 -1 -10 4 -10 6 0 11 -5 11 -11 0 -8 -5 -8 -15 1 -13 11 -12
30 1 30 3 0 2 -4 -1 -10z m479 -418 c3 -5 -1 -9 -9 -9 -8 0 -12 4 -9 9 3 4 7
8 9 8 2 0 6 -4 9 -8z"/>
<path d="M2250 1320 c0 -6 4 -9 9 -6 5 4 12 1 14 -4 3 -6 4 -5 3 2 -3 15 -26
23 -26 8z"/>
<path d="M2306 1318 c3 -4 0 -8 -5 -8 -6 0 -11 -5 -11 -11 0 -8 4 -9 13 0 8 6
16 9 19 6 2 -3 5 1 5 8 0 8 -6 14 -13 14 -7 0 -11 -4 -8 -9z"/>
<path d="M2345 1310 c-10 -11 -21 -17 -26 -15 -4 3 -10 1 -14 -4 -4 -7 -15 -7
-31 -1 -21 8 -29 6 -43 -12 -14 -16 -20 -18 -26 -8 -6 9 -4 11 5 5 9 -5 11 -4
6 4 -4 6 -12 9 -17 5 -5 -3 -7 -10 -4 -15 4 -5 -1 -12 -9 -15 -9 -3 -13 -11
-10 -16 4 -6 10 -5 15 3 4 7 10 11 14 8 3 -3 -5 -14 -17 -25 -12 -10 -18 -13
-13 -5 5 9 3 12 -6 9 -8 -3 -15 -10 -15 -16 -1 -7 -3 -15 -4 -19 -1 -5 -2 -12
-1 -16 1 -4 -9 -3 -21 4 l-23 12 20 -24 c11 -13 13 -18 5 -11 -18 15 -34 16
-24 0 5 -8 2 -9 -10 -5 -10 4 -15 3 -11 -3 3 -6 2 -10 -2 -10 -5 0 -18 -7 -29
-16 -18 -14 -18 -14 6 -3 22 11 23 10 13 -3 -7 -8 -10 -18 -6 -21 10 -11 -6
-8 -30 5 -19 10 -20 9 -9 -4 10 -13 10 -17 -2 -21 -8 -3 -17 -1 -20 6 -3 7 -3
1 0 -12 5 -18 3 -22 -7 -16 -8 5 -11 5 -7 0 13 -14 -12 -47 -33 -42 -16 4 -17
2 -8 -15 9 -16 8 -19 -2 -13 -9 6 -11 4 -6 -7 4 -12 0 -15 -19 -13 -17 1 -32
-7 -49 -26 -23 -29 -43 -40 -29 -17 4 7 3 8 -4 4 -9 -5 -7 -14 5 -32 9 -14 12
-24 7 -23 -22 4 -35 -2 -28 -13 5 -7 3 -8 -6 -3 -10 6 -12 4 -7 -8 4 -10 2
-16 -6 -14 -7 1 -11 -3 -10 -8 1 -6 -8 -12 -19 -12 -11 -1 -28 -9 -37 -17 -10
-9 -20 -14 -22 -11 -3 2 -6 -5 -6 -17 -2 -19 -1 -19 11 -3 10 14 15 15 21 5 5
-8 4 -11 -3 -6 -6 3 -13 -3 -17 -14 -5 -16 -9 -17 -20 -7 -7 6 -10 16 -7 21 3
5 0 6 -6 2 -8 -5 -9 -13 -3 -25 13 -24 -1 -43 -25 -34 -16 6 -17 5 -6 -9 10
-13 10 -18 1 -24 -8 -4 -9 -3 -5 4 4 7 3 12 -2 12 -15 0 -22 -28 -9 -34 9 -3
8 -5 -1 -5 -7 -1 -10 -6 -6 -13 4 -7 3 -8 -5 -4 -6 4 -9 12 -6 17 10 14 -5 11
-22 -6 -12 -13 -18 -13 -32 -3 -14 11 -14 11 -4 -3 10 -12 9 -20 -4 -39 -10
-15 -12 -20 -3 -15 9 6 11 4 6 -4 -5 -7 -15 -10 -23 -7 -10 4 -13 2 -10 -8 8
-20 -4 -28 -21 -13 -13 9 -14 9 -8 0 4 -8 2 -13 -4 -13 -6 0 -8 -5 -5 -10 4
-6 11 -7 17 -4 7 5 8 2 4 -5 -5 -7 -10 -10 -13 -7 -3 3 -13 -3 -22 -12 -9 -10
-12 -13 -8 -6 5 7 3 15 -4 20 -8 4 -9 3 -5 -4 4 -7 2 -12 -5 -12 -6 0 -9 -8
-6 -19 4 -15 0 -18 -19 -16 -20 2 -23 -1 -18 -18 5 -16 3 -19 -10 -14 -12 5
-15 3 -10 -5 5 -7 2 -9 -7 -6 -10 4 -15 -1 -17 -15 -1 -18 1 -19 9 -7 9 13 10
13 6 0 -2 -8 -11 -14 -20 -14 -10 1 -13 -4 -10 -14 5 -11 2 -13 -8 -7 -8 4 -4
-2 9 -14 27 -27 28 -35 2 -21 -24 13 -26 7 -4 -15 21 -21 10 -32 -13 -14 -16
12 -17 12 -6 -1 6 -8 11 -19 11 -23 0 -5 4 -12 8 -15 4 -4 4 0 -1 8 -7 12 -6
13 6 2 12 -11 12 -14 -1 -22 -8 -5 -18 -6 -24 -3 -5 3 -6 1 -2 -5 4 -6 13 -9
21 -5 21 7 19 -7 -2 -23 -17 -13 -17 -14 0 -8 9 3 17 1 17 -5 0 -6 -8 -11 -17
-12 -15 0 -15 -2 2 -8 11 -5 23 -7 28 -4 4 2 7 -3 7 -11 0 -22 16 -20 33 4 8
11 17 17 22 12 5 -4 5 -1 0 7 -6 11 -12 9 -26 -10 -18 -24 -18 -24 -16 -2 0
12 6 21 11 20 6 -1 10 3 11 8 0 6 4 16 9 23 6 11 11 11 24 0 13 -11 14 -11 7
1 -6 11 -4 13 8 8 11 -4 15 -1 12 13 -2 10 3 21 11 24 9 3 12 11 8 18 -4 7 -4
10 1 6 4 -4 16 -3 27 3 13 7 17 17 13 32 -5 19 -4 20 5 5 6 -9 17 -15 25 -12
8 4 12 11 9 16 -4 6 -10 5 -16 -3 -8 -11 -9 -11 -5 1 2 8 13 14 25 14 13 -1
19 3 15 12 -3 8 -10 11 -17 7 -6 -3 -2 3 8 16 13 14 23 18 30 11 13 -13 26
-13 26 1 0 5 -4 8 -9 5 -5 -3 -11 1 -14 9 -5 11 -1 12 19 5 15 -6 23 -6 19 -1
-3 5 -1 12 4 16 5 3 8 14 6 25 -3 13 1 17 11 13 7 -3 11 -9 8 -14 -3 -5 2 -6
11 -3 14 6 14 8 -1 19 -16 11 -16 12 1 19 15 5 15 9 4 24 -12 15 -12 16 1 5
20 -15 55 -10 55 8 0 8 9 13 20 12 11 -1 14 0 8 3 -16 7 -17 34 -2 34 5 0 7 4
4 10 -4 6 1 7 11 3 13 -5 16 -3 11 10 -7 19 17 41 38 33 8 -3 15 -1 15 5 0 6
5 7 12 3 7 -4 8 -3 4 5 -4 6 0 14 8 17 9 3 13 10 10 16 -3 5 -13 0 -21 -11
-15 -22 -33 -28 -33 -10 0 5 4 8 9 4 6 -3 15 3 20 13 7 13 19 18 36 17 14 -2
23 1 19 6 -3 5 -11 6 -17 2 -8 -5 -8 -2 0 9 7 8 9 19 5 23 -4 5 -2 5 5 1 7 -4
21 -1 32 6 15 9 17 15 9 26 -6 7 -7 12 -2 11 23 -4 43 3 75 27 19 15 26 24 17
21 -12 -4 -16 -1 -15 13 1 12 5 16 12 10 6 -5 17 -5 25 2 12 8 12 9 -2 4 -10
-3 -18 -1 -18 4 0 6 4 10 8 10 5 0 15 14 23 32 13 26 17 29 22 14 4 -9 3 -15
-2 -12 -5 3 -12 -1 -15 -10 -8 -21 -8 -24 5 -24 5 0 7 5 4 10 -3 6 1 10 10 10
12 0 15 6 10 21 -5 15 -4 19 5 14 7 -4 10 -1 8 11 -2 11 3 19 12 19 8 1 14 7
12 13 -2 10 3 10 19 1 13 -6 19 -7 15 -1 -3 6 -1 12 6 15 7 2 5 3 -5 1 -15 -2
-16 0 -6 12 6 8 14 12 17 9 7 -7 42 25 42 39 -1 6 -10 0 -20 -13 -11 -13 -20
-19 -20 -14 0 11 40 50 46 46 10 -7 24 -2 24 7 0 5 -8 6 -17 3 -10 -4 -2 7 17
24 23 21 39 28 46 22 8 -6 10 -2 9 15 -3 19 1 23 19 19 17 -4 18 -3 6 6 -13 9
-13 11 3 11 9 0 17 -5 17 -12 0 -6 3 -8 7 -5 3 4 -2 17 -13 28 -19 22 -19 22
5 9 15 -7 21 -8 17 -1 -4 6 -2 11 4 11 6 0 8 6 5 13 -4 6 1 3 10 -8 17 -20 17
-20 10 3 -4 16 -3 22 6 20 7 -2 14 6 15 17 1 11 3 25 4 30 5 23 -1 34 -20 32
-13 -1 -19 -6 -15 -15 4 -10 0 -10 -16 2 -12 8 -29 12 -38 8 -14 -5 -14 -4 -2
11 19 24 8 21 -14 -3z m40 -19 c3 -5 2 -12 -3 -15 -5 -3 -9 1 -9 9 0 17 3 19
12 6z m54 -17 c-6 -8 -17 -14 -23 -14 -6 0 -3 5 7 11 9 6 14 15 11 21 -4 7 -2
8 5 4 9 -6 9 -11 0 -22z m1 -32 c0 -5 -7 -9 -15 -9 -8 0 -15 4 -15 9 0 4 7 8
15 8 8 0 15 -4 15 -8z m-530 -285 c0 -2 -9 -14 -19 -26 -11 -13 -17 -29 -14
-37 3 -8 3 -14 0 -14 -16 0 -13 32 4 54 19 24 29 32 29 23z m125 -136 c3 -6
-4 -15 -15 -21 -19 -10 -20 -10 -8 9 15 24 15 24 23 12z m-270 -31 c-3 -5 -11
-10 -16 -10 -6 0 -7 5 -4 10 3 6 11 10 16 10 6 0 7 -4 4 -10z m-155 -164 c0
-2 -7 -9 -15 -16 -13 -11 -14 -10 -9 4 5 14 24 23 24 12z m160 -66 c0 -5 -5
-10 -11 -10 -5 0 -7 5 -4 10 3 6 8 10 11 10 2 0 4 -4 4 -10z m-15 -30 c3 -6
-1 -7 -9 -4 -18 7 -21 14 -7 14 6 0 13 -4 16 -10z m-85 -84 c0 -3 -4 -8 -10
-11 -5 -3 -10 -1 -10 4 0 6 5 11 10 11 6 0 10 -2 10 -4z m-289 -259 c-10 -9
-11 -8 -5 6 3 10 9 15 12 12 3 -3 0 -11 -7 -18z"/>
<path d="M2128 1213 c6 -2 9 -10 6 -15 -4 -7 -2 -8 5 -4 13 9 5 26 -12 25 -9
0 -8 -2 1 -6z"/>
<path d="M1217 1147 c-3 -8 0 -14 7 -14 7 0 13 6 13 14 0 7 -4 13 -8 13 -4 0
-9 -6 -12 -13z"/>
<path d="M256 1125 c-3 -8 -1 -15 4 -15 6 0 10 7 10 15 0 8 -2 15 -4 15 -2 0
-6 -7 -10 -15z"/>
<path d="M555 1111 c-3 -5 -1 -12 5 -16 5 -3 10 1 10 9 0 18 -6 21 -15 7z"/>
<path d="M2296 1101 c-10 -11 -13 -21 -7 -25 10 -7 24 10 27 32 3 16 0 15 -20
-7z"/>
<path d="M310 1083 c12 -25 25 -29 36 -11 5 7 3 8 -5 4 -7 -5 -19 0 -27 10
-14 18 -14 18 -4 -3z"/>
<path d="M433 965 c0 -8 4 -12 9 -9 5 3 6 10 3 15 -9 13 -12 11 -12 -6z"/>
<path d="M2150 936 c4 -4 16 -4 26 2 16 9 14 10 -8 9 -15 -1 -23 -6 -18 -11z"/>
<path d="M1799 873 c-13 -16 -12 -17 4 -4 16 13 21 21 13 21 -2 0 -10 -8 -17
-17z"/>
<path d="M805 861 c-3 -5 -2 -12 3 -15 5 -3 9 1 9 9 0 17 -3 19 -12 6z"/>
<path d="M550 840 c0 -5 5 -10 11 -10 5 0 7 5 4 10 -3 6 -8 10 -11 10 -2 0 -4
-4 -4 -10z"/>
<path d="M1761 843 c-2 -20 16 -24 30 -5 13 15 12 16 -3 4 -13 -10 -17 -10
-21 0 -4 9 -6 9 -6 1z"/>
<path d="M846 808 c3 -5 10 -6 15 -3 13 9 11 12 -6 12 -8 0 -12 -4 -9 -9z"/>
<path d="M1615 680 c-3 -5 -1 -10 4 -10 6 0 11 5 11 10 0 6 -2 10 -4 10 -3 0
-8 -4 -11 -10z"/>
<path d="M730 660 c0 -5 5 -10 11 -10 5 0 7 5 4 10 -3 6 -8 10 -11 10 -2 0 -4
-4 -4 -10z"/>
<path d="M1825 620 c-3 -5 1 -10 9 -10 9 0 16 5 16 10 0 6 -4 10 -9 10 -6 0
-13 -4 -16 -10z"/>
<path d="M1059 597 c6 -8 7 -18 3 -22 -4 -5 -2 -5 5 -1 14 8 6 36 -9 36 -7 0
-6 -5 1 -13z"/>
<path d="M1798 563 c7 -3 16 -2 19 1 4 3 -2 6 -13 5 -11 0 -14 -3 -6 -6z"/>
<path d="M1170 490 c-9 -6 -10 -10 -3 -10 6 0 15 5 18 10 8 12 4 12 -15 0z"/>
<path d="M1716 492 c-3 -5 1 -9 9 -9 8 0 12 4 9 9 -3 4 -7 8 -9 8 -2 0 -6 -4
-9 -8z"/>
<path d="M1605 391 c-3 -5 -2 -12 3 -15 5 -3 9 1 9 9 0 17 -3 19 -12 6z"/>
<path d="M1015 340 c-3 -5 -2 -10 4 -10 5 0 13 5 16 10 3 6 2 10 -4 10 -5 0
-13 -4 -16 -10z"/>
<path d="M1263 265 c0 -8 4 -12 9 -9 5 3 6 10 3 15 -9 13 -12 11 -12 -6z"/>
<path d="M1505 269 c-4 -6 -4 -13 -1 -16 3 -4 6 -1 6 6 0 7 5 9 12 5 7 -4 8
-3 4 4 -9 15 -13 15 -21 1z"/>
<path d="M1140 241 c0 -6 4 -12 8 -15 5 -3 9 1 9 9 0 8 -4 15 -9 15 -4 0 -8
-4 -8 -9z"/>
<path d="M1435 220 c-3 -5 -1 -10 4 -10 6 0 11 5 11 10 0 6 -2 10 -4 10 -3 0
-8 -4 -11 -10z"/>
<path d="M1198 163 c7 -3 16 -2 19 1 4 3 -2 6 -13 5 -11 0 -14 -3 -6 -6z"/>
</g>
</svg>
